<svg xmlns="http://www.w3.org/2000/svg" xmlns:xlink="http://www.w3.org/1999/xlink" contentStyleType="text/css" data-diagram-type="DESCRIPTION" height="1072.9167px" preserveAspectRatio="none" style="width:756px;height:1072px;background:#FFFFFF;" version="1.1" viewBox="0 0 756 1072" width="756.25px" zoomAndPan="magnify"><?plantuml 1.2026.6?><defs/><g><g class="title" data-source-line="24"><text fill="#000000" font-family="Helvetica" font-size="29.1667" font-weight="700" lengthAdjust="spacing" textLength="701.8799" x="20.8333" y="43.2922">Team 4 &#8212; Feedback &amp; Reports: Use Case Diagram</text></g><!--cluster Feedback & Reports Module--><g class="cluster" data-qualified-name="Feedback . Reports Module" data-source-line="31" id="ent0003"><rect fill="none" height="975" rx="5.2083" ry="5.2083" style="stroke:#ADB5BD;stroke-width:2.0833;" width="395.8333" x="303.0233" y="81.25"/><text fill="#495057" font-family="Helvetica" font-size="27.0833" font-weight="700" lengthAdjust="spacing" textLength="364.1836" x="318.8482" y="106.2714">Feedback &amp; Reports Module</text></g><!--entity trainee--><g class="entity" data-qualified-name="trainee" data-source-line="28" id="ent0001"><ellipse cx="141.6463" cy="104.1667" fill="#F1F1F1" rx="16.6667" ry="16.6667" style="stroke:#212529;stroke-width:1.0417;"/><path d="M141.6463,120.8333 L141.6463,177.0833 M114.563,137.5 L168.7297,137.5 M141.6463,177.0833 L114.563,208.3333 M141.6463,177.0833 L168.7297,208.3333" fill="none" style="stroke:#212529;stroke-width:1.0417;"/><text fill="#212529" font-family="Helvetica" font-size="27.0833" lengthAdjust="spacing" textLength="91.8294" x="95.7316" y="232.313">Trainee</text></g><!--entity manager--><g class="entity" data-qualified-name="manager" data-source-line="29" id="ent0002"><ellipse cx="141.5563" cy="566.6667" fill="#F1F1F1" rx="16.6667" ry="16.6667" style="stroke:#212529;stroke-width:1.0417;"/><path d="M141.5563,583.3333 L141.5563,639.5833 M114.473,600 L168.6396,600 M141.5563,639.5833 L114.473,670.8333 M141.5563,639.5833 L168.6396,670.8333" fill="none" style="stroke:#212529;stroke-width:1.0417;"/><text fill="#212529" font-family="Helvetica" font-size="27.0833" lengthAdjust="spacing" textLength="206.2327" x="38.4399" y="694.813">Manager / Admin</text></g><!--entity UC1--><g class="entity" data-qualified-name="Feedback . Reports Module.UC1" data-source-line="32" id="ent0004"><ellipse cx="500.1535" cy="162.5511" fill="#E7F0FF" rx="131.5053" ry="31.3011" style="stroke:#3B5BDB;stroke-width:1.0417;"/><text fill="#1C2536" font-family="Helvetica" font-size="27.0833" lengthAdjust="spacing" textLength="210.7554" x="394.7758" y="168.8011">Submit Feedback</text></g><!--entity UC2--><g class="entity" data-qualified-name="Feedback . Reports Module.UC2" data-source-line="33" id="ent0005"><ellipse cx="500.0479" cy="264.6133" fill="#E7F0FF" rx="136.608" ry="32.3216" style="stroke:#3B5BDB;stroke-width:1.0417;"/><text fill="#1C2536" font-family="Helvetica" font-size="27.0833" lengthAdjust="spacing" textLength="222.7895" x="388.6532" y="270.8633">View All Feedback</text></g><!--entity UC3--><g class="entity" data-qualified-name="Feedback . Reports Module.UC3" data-source-line="34" id="ent0006"><ellipse cx="499.5423" cy="377.2315" fill="#E7F0FF" rx="106.9357" ry="42.8565" style="stroke:#3B5BDB;stroke-width:1.0417;"/><text fill="#1C2536" font-family="Helvetica" font-size="27.0833" lengthAdjust="spacing" textLength="148.9848" x="425.0499" y="372.3954">Trainer-wise</text><text fill="#1C2536" font-family="Helvetica" font-size="27.0833" lengthAdjust="spacing" textLength="118.9392" x="440.0727" y="399.4787">Feedback</text></g><!--entity UC4--><g class="entity" data-qualified-name="Feedback . Reports Module.UC4" data-source-line="35" id="ent0007"><ellipse cx="499.6519" cy="501.9693" fill="#E7F0FF" rx="97.6703" ry="43.6359" style="stroke:#3B5BDB;stroke-width:1.0417;"/><text fill="#1C2536" font-family="Helvetica" font-size="27.0833" lengthAdjust="spacing" textLength="132.4544" x="433.4247" y="495.9888">Batch-wise</text><text fill="#1C2536" font-family="Helvetica" font-size="27.0833" lengthAdjust="spacing" textLength="118.9392" x="440.1823" y="523.0722">Feedback</text></g><!--entity UC5--><g class="entity" data-qualified-name="Feedback . Reports Module.UC5" data-source-line="36" id="ent0008"><ellipse cx="499.859" cy="625.3912" fill="#FFF4E6" rx="113.5024" ry="41.0162" style="stroke:#3B5BDB;stroke-width:1.0417;"/><text fill="#1C2536" font-family="Helvetica" font-size="27.0833" lengthAdjust="spacing" textLength="167.1021" x="416.308" y="623.3842">View Average</text><text fill="#1C2536" font-family="Helvetica" font-size="27.0833" lengthAdjust="spacing" textLength="78.2878" x="460.7151" y="650.4675">Rating</text></g><!--entity UC6--><g class="entity" data-qualified-name="Feedback . Reports Module.UC6" data-source-line="37" id="ent0009"><ellipse cx="499.7696" cy="745.3959" fill="#FFF4E6" rx="86.3297" ry="42.2709" style="stroke:#3B5BDB;stroke-width:1.0417;"/><text fill="#1C2536" font-family="Helvetica" font-size="27.0833" lengthAdjust="spacing" textLength="120.4203" x="439.5595" y="741.4389">View Best</text><text fill="#1C2536" font-family="Helvetica" font-size="27.0833" lengthAdjust="spacing" textLength="85.7859" x="456.8767" y="768.5222">Trainer</text></g><!--entity UC7--><g class="entity" data-qualified-name="Feedback . Reports Module.UC7" data-source-line="38" id="ent0010"><ellipse cx="500.1256" cy="870.8914" fill="#FFF4E6" rx="121.0606" ry="43.808" style="stroke:#3B5BDB;stroke-width:1.0417;"/><text fill="#1C2536" font-family="Helvetica" font-size="27.0833" lengthAdjust="spacing" textLength="152.0396" x="424.1058" y="862.5375">View Lowest</text><text fill="#1C2536" font-family="Helvetica" font-size="27.0833" lengthAdjust="spacing" textLength="165.5813" x="417.3349" y="889.6209">Rated Trainer</text></g><!--entity UC8--><g class="entity" data-qualified-name="Feedback . Reports Module.UC8" data-source-line="39" id="ent0011"><ellipse cx="499.7983" cy="995.5592" fill="#FFF4E6" rx="124.9" ry="42.4342" style="stroke:#3B5BDB;stroke-width:1.0417;"/><text fill="#1C2536" font-family="Helvetica" font-size="27.0833" lengthAdjust="spacing" textLength="177.6154" x="410.9906" y="991.3552">View Trainings</text><text fill="#1C2536" font-family="Helvetica" font-size="27.0833" lengthAdjust="spacing" textLength="130.9998" x="434.2984" y="1018.4386">Conducted</text></g><g class="link" data-entity-1="ent0001" data-entity-2="ent0004" data-link-type="dependency" id="lnk12"><polygon fill="#495057" points="368.318,162.5,349.568,154.1667,357.9013,162.5,349.568,170.8333,368.318,162.5" style="stroke:#495057;stroke-width:2.0833;stroke-linejoin:miter;stroke-miterlimit:10;"/><path d="M187.7876,162.5 C232.8473,162.5 294.5538,162.5 357.9013,162.5" fill="none" style="stroke:#495057;stroke-width:2.0833;"/></g><g class="link" data-entity-1="ent0002" data-entity-2="ent0005" data-link-type="dependency" id="lnk13"><polygon fill="#495057" points="362.9247,283.241,342.4917,281.3697,353.0597,286.5859,347.8435,297.1538,362.9247,283.241" style="stroke:#495057;stroke-width:2.0833;stroke-linejoin:miter;stroke-miterlimit:10;"/><path d="M163.1618,548.9409 C185.3234,477.8971 228.4659,374.1221 303.0233,314.5833 C320.4841,300.6397 331.524,293.8878 353.0597,286.5859" fill="none" style="stroke:#495057;stroke-width:2.0833;"/></g><g class="link" data-entity-1="ent0002" data-entity-2="ent0006" data-link-type="dependency" id="lnk14"><polygon fill="#495057" points="391.9233,399.5544,371.5462,397.1498,381.9742,402.6403,376.4837,413.0683,391.9233,399.5544" style="stroke:#495057;stroke-width:2.0833;stroke-linejoin:miter;stroke-miterlimit:10;"/><path d="M194.1567,548.3784 C222.2745,510.9476 260.2203,467.9723 303.0233,439.5833 C329.6613,421.9157 351.6959,412.0318 381.9742,402.6403" fill="none" style="stroke:#495057;stroke-width:2.0833;"/></g><g class="link" data-entity-1="ent0002" data-entity-2="ent0007" data-link-type="dependency" id="lnk15"><polygon fill="#495057" points="401.3798,531.9348,380.9846,529.6898,391.4552,535.0985,386.0465,545.5692,401.3798,531.9348" style="stroke:#495057;stroke-width:2.0833;stroke-linejoin:miter;stroke-miterlimit:10;"/><path d="M245.3861,585.5337 C264.4736,578.3851 284.3089,571.1279 303.0233,564.5833 C334.8723,553.4455 359.9836,545.1309 391.4552,535.0985" fill="none" style="stroke:#495057;stroke-width:2.0833;"/></g><g class="link" data-entity-1="ent0002" data-entity-2="ent0008" data-link-type="dependency" id="lnk16"><polygon fill="#495057" points="385.7487,625,366.9987,616.6667,375.332,625,366.9987,633.3333,385.7487,625" style="stroke:#495057;stroke-width:2.0833;stroke-linejoin:miter;stroke-miterlimit:10;"/><path d="M245.1382,625 C289.0854,625 330.2627,625 375.332,625" fill="none" style="stroke:#495057;stroke-width:2.0833;"/></g><g class="link" data-entity-1="ent0002" data-entity-2="ent0009" data-link-type="dependency" id="lnk17"><polygon fill="#495057" points="413.1943,719.5014,397.8437,705.8864,403.2657,716.3502,392.8019,721.7721,413.1943,719.5014" style="stroke:#495057;stroke-width:2.0833;stroke-linejoin:miter;stroke-miterlimit:10;"/><path d="M245.456,662.9571 C264.5368,669.8736 284.3516,676.9238 303.0233,683.3333 C338.9667,695.6719 368.9648,705.4637 403.2657,716.3502" fill="none" style="stroke:#495057;stroke-width:2.0833;"/></g><g class="link" data-entity-1="ent0002" data-entity-2="ent0010" data-link-type="dependency" id="lnk18"><polygon fill="#495057" points="378.8404,842.4774,363.9117,828.4012,369.0124,839.0253,358.3883,844.126,378.8404,842.4774" style="stroke:#495057;stroke-width:2.0833;stroke-linejoin:miter;stroke-miterlimit:10;"/><path d="M196.0054,701.5162 C224.0863,737.6224 261.4473,778.7223 303.0233,806.25 C325.8976,821.3952 342.8063,829.8203 369.0124,839.0253" fill="none" style="stroke:#495057;stroke-width:2.0833;"/></g><g class="link" data-entity-1="ent0002" data-entity-2="ent0011" data-link-type="dependency" id="lnk19"><polygon fill="#495057" points="373.8833,972.0822,359.025,957.9316,364.0726,968.581,353.4232,973.6287,373.8833,972.0822" style="stroke:#495057;stroke-width:2.0833;stroke-linejoin:miter;stroke-miterlimit:10;"/><path d="M164.7517,701.5971 C187.7711,771.4083 231.2534,872.6239 303.0233,933.3333 C323.3603,950.5362 338.6896,959.5226 364.0726,968.581" fill="none" style="stroke:#495057;stroke-width:2.0833;"/></g><?plantuml-src TLFBRjim4BphAxOkq9jHMmyxwQ609SVeeUaXJdhoPIskPI8KQP1KXBGeq8_e5_PBIZtYKdBYasSvCpkxfDwTD1ObWi1dLLam9LcK69X7Ba-eiGHsuX3EPbvbZ_bZeLKbMQQ4ql1-q_uyXZaYKpMN1HnG6FBTw82Li1ibxJSi2RwGU2BBStoTi-K_2EQHTxZIMjLzt_WwcILBx_3aac51M_ii23JbRfH2-EqnjqxuCm18bMQaUwDm7YRXjQisFOUrNvwwCfIZeKu_NiBDSZDpInWvHscIhjEXypmBasWnS3vdlSosMZSMGuT-yAxMJRjNWZdBm7Bhq3qvqnZ-_lu36oBMt1XyW3iwAMtD9tXmGsJD96kEXUiV188E5gm2pOkZ1SQRG5p98EWsDhdNo2NH1D20xVw_7DswzrAGXe-mOYMNBQNiQa7mVx39PH2uLQmIphGP-cMvassrBxazvsxz7hAvJ_dEgOQL46DIw9Ewo7fQSqCxEM96FZD5cnzVvyMNRP_8VJ6EUOVMlV2UbxHVGNopkE2dPEnEzc5wzk9DzbTLjtndJWo6gkMRgfRdmfYTp9HaLUx4lUZgB6eUHtTpC9r-RbVQNrEFmn6EHZWUuMI45oEy7E6hVm00?></g></svg>