<svg xmlns="http://www.w3.org/2000/svg" xmlns:xlink="http://www.w3.org/1999/xlink" contentStyleType="text/css" data-diagram-type="ACTIVITY" height="1835.4167px" preserveAspectRatio="none" style="width:3977px;height:1835px;background:#FFFFFF;" version="1.1" viewBox="0 0 3977 1835" width="3977.0833px" zoomAndPan="magnify"><?plantuml 1.2026.6?><defs/><g><g class="title" data-source-line="18"><text fill="#000000" font-family="Helvetica" font-size="29.1667" font-weight="700" lengthAdjust="spacing" textLength="675.9033" x="1649.2434" y="64.1256">Team 4 &#8212; Feedback &amp; Reports: Activity Diagram</text></g><ellipse cx="1926.9043" cy="125" fill="#2F9E44" rx="20.8333" ry="20.8333" style="stroke:#222222;stroke-width:2.0833;"/><rect fill="#EEF4FF" height="68.75" rx="26.0417" ry="26.0417" style="stroke:#3B5BDB;stroke-width:2.0833;" width="184.6873" x="1834.5606" y="279.1667"/><text fill="#000000" font-family="Helvetica" font-size="27.0833" lengthAdjust="spacing" textLength="143.0206" x="1855.394" y="320.8547">Show menu</text><polygon fill="#FFF3BF" points="1842.5929,389.5833,2011.2157,389.5833,2036.2157,414.5833,2011.2157,439.5833,1842.5929,439.5833,1817.5929,414.5833,1842.5929,389.5833" style="stroke:#F08C00;stroke-width:2.0833;stroke-linejoin:miter;stroke-miterlimit:10;"/><text fill="#1C2536" font-family="Helvetica" font-size="27.0833" lengthAdjust="spacing" textLength="168.6228" x="1842.5929" y="421.8964">Menu choice?</text><rect fill="#EEF4FF" height="95.8333" rx="26.0417" ry="26.0417" style="stroke:#3B5BDB;stroke-width:2.0833;" width="419.5241" x="412.1379" y="514.5833"/><text fill="#000000" font-family="Helvetica" font-size="27.0833" lengthAdjust="spacing" textLength="377.8575" x="432.9712" y="556.2714">Enter trainee, trainer, batch ids,</text><text fill="#000000" font-family="Helvetica" font-size="27.0833" lengthAdjust="spacing" textLength="207.7138" x="432.9712" y="583.3547">rating, comments</text><polygon fill="#FFF3BF" points="509.0108,683.3333,734.789,683.3333,759.789,710.4167,734.789,737.5,509.0108,737.5,484.0108,710.4167,509.0108,683.3333" style="stroke:#F08C00;stroke-width:2.0833;stroke-linejoin:miter;stroke-miterlimit:10;"/><text fill="#1C2536" font-family="Helvetica" font-size="27.0833" lengthAdjust="spacing" textLength="141.5395" x="509.0108" y="704.188">Valid input?</text><text fill="#1C2536" font-family="Helvetica" font-size="27.0833" lengthAdjust="spacing" textLength="225.7782" x="509.0108" y="731.2714">(ids set, rating 1-5)</text><text fill="#495057" font-family="Helvetica" font-size="27.0833" lengthAdjust="spacing" textLength="42.1458" x="441.865" y="704.188">yes</text><text fill="#495057" font-family="Helvetica" font-size="27.0833" lengthAdjust="spacing" textLength="30.1249" x="759.789" y="704.188">no</text><rect fill="#EEF4FF" height="68.75" rx="26.0417" ry="26.0417" style="stroke:#3B5BDB;stroke-width:2.0833;" width="250.941" x="234.584" y="758.3333"/><text fill="#000000" font-family="Helvetica" font-size="27.0833" lengthAdjust="spacing" textLength="209.2743" x="255.4174" y="800.0214">Begin transaction</text><rect fill="#EEF4FF" height="95.8333" rx="26.0417" ry="26.0417" style="stroke:#3B5BDB;stroke-width:2.0833;" width="377.3783" x="171.3654" y="900"/><text fill="#000000" font-family="Helvetica" font-size="27.0833" lengthAdjust="spacing" textLength="242.3747" x="192.1987" y="941.688">Build Feedback, link</text><text fill="#000000" font-family="Helvetica" font-size="27.0833" lengthAdjust="spacing" textLength="335.7117" x="192.1987" y="968.7714">trainer / trainee / batch by id</text><rect fill="#EEF4FF" height="68.75" rx="26.0417" ry="26.0417" style="stroke:#3B5BDB;stroke-width:2.0833;" width="326.1342" x="196.9874" y="1054.1667"/><text fill="#000000" font-family="Helvetica" font-size="27.0833" lengthAdjust="spacing" textLength="284.4676" x="217.8207" y="1095.8547">Persist feedback (DAO)</text><polygon fill="#FFF3BF" points="290.799,1195.8333,429.3101,1195.8333,454.3101,1220.8333,429.3101,1245.8333,290.799,1245.8333,265.799,1220.8333,290.799,1195.8333" style="stroke:#F08C00;stroke-width:2.0833;stroke-linejoin:miter;stroke-miterlimit:10;"/><text fill="#1C2536" font-family="Helvetica" font-size="27.0833" lengthAdjust="spacing" textLength="138.5111" x="290.799" y="1228.1464">Saved OK?</text><text fill="#495057" font-family="Helvetica" font-size="27.0833" lengthAdjust="spacing" textLength="42.1458" x="223.6532" y="1214.6047">yes</text><text fill="#495057" font-family="Helvetica" font-size="27.0833" lengthAdjust="spacing" textLength="30.1249" x="454.3101" y="1214.6047">no</text><rect fill="#EEF4FF" height="68.75" rx="26.0417" ry="26.0417" style="stroke:#3B5BDB;stroke-width:2.0833;" width="274.9563" x="52.1912" y="1266.6667"/><text fill="#000000" font-family="Helvetica" font-size="27.0833" lengthAdjust="spacing" textLength="233.2896" x="73.0245" y="1308.3547">Commit transaction</text><rect fill="#D3F9D8" height="68.75" rx="26.0417" ry="26.0417" style="stroke:#3B5BDB;stroke-width:2.0833;" width="312.6719" x="33.3333" y="1377.0833"/><text fill="#000000" font-family="Helvetica" font-size="27.0833" lengthAdjust="spacing" textLength="271.0052" x="54.1667" y="1418.7714">Show new feedback id</text><rect fill="#FFE3E3" height="68.75" rx="26.0417" ry="26.0417" style="stroke:#3B5BDB;stroke-width:2.0833;" width="285.5357" x="387.6719" y="1266.6667"/><text fill="#000000" font-family="Helvetica" font-size="27.0833" lengthAdjust="spacing" textLength="243.869" x="408.5052" y="1308.3547">Rollback transaction</text><rect fill="#FFE3E3" height="68.75" rx="26.0417" ry="26.0417" style="stroke:#3B5BDB;stroke-width:2.0833;" width="174.1211" x="443.3792" y="1377.0833"/><text fill="#000000" font-family="Helvetica" font-size="27.0833" lengthAdjust="spacing" textLength="132.4544" x="464.2125" y="1418.7714">Show error</text><rect fill="#FFE3E3" height="68.75" rx="26.0417" ry="26.0417" style="stroke:#3B5BDB;stroke-width:2.0833;" width="296.0754" x="735.7076" y="758.3333"/><text fill="#000000" font-family="Helvetica" font-size="27.0833" lengthAdjust="spacing" textLength="254.4088" x="756.5409" y="800.0214">Show validation error</text><polygon fill="#FFF3BF" points="1137.4222,566.6667,1229.2781,566.6667,1254.2781,591.6667,1229.2781,616.6667,1137.4222,616.6667,1112.4222,591.6667,1137.4222,566.6667" style="stroke:#F08C00;stroke-width:2.0833;stroke-linejoin:miter;stroke-miterlimit:10;"/><text fill="#495057" font-family="Helvetica" font-size="27.0833" lengthAdjust="spacing" textLength="27.0966" x="1191.6835" y="637.5214">all</text><text fill="#1C2536" font-family="Helvetica" font-size="27.0833" lengthAdjust="spacing" textLength="91.8559" x="1137.4222" y="598.9797">Scope?</text><rect fill="#EEF4FF" height="68.75" rx="26.0417" ry="26.0417" style="stroke:#3B5BDB;stroke-width:2.0833;" width="261.4675" x="1052.6164" y="685.4167"/><text fill="#000000" font-family="Helvetica" font-size="27.0833" lengthAdjust="spacing" textLength="219.8008" x="1073.4497" y="727.1047">Fetch all feedback</text><polygon fill="#FFF3BF" points="1462.6226,566.6667,1554.4785,566.6667,1579.4785,591.6667,1554.4785,616.6667,1462.6226,616.6667,1437.6226,591.6667,1462.6226,566.6667" style="stroke:#F08C00;stroke-width:2.0833;stroke-linejoin:miter;stroke-miterlimit:10;"/><text fill="#495057" font-family="Helvetica" font-size="27.0833" lengthAdjust="spacing" textLength="112.8957" x="1516.8839" y="637.5214">by trainer</text><text fill="#1C2536" font-family="Helvetica" font-size="27.0833" lengthAdjust="spacing" textLength="91.8559" x="1462.6226" y="598.9797">Scope?</text><text fill="#495057" font-family="Helvetica" font-size="27.0833" lengthAdjust="spacing" textLength="102.3824" x="1579.4785" y="585.438">by batch</text><rect fill="#EEF4FF" height="68.75" rx="26.0417" ry="26.0417" style="stroke:#3B5BDB;stroke-width:2.0833;" width="219.2952" x="1398.9029" y="685.4167"/><text fill="#000000" font-family="Helvetica" font-size="27.0833" lengthAdjust="spacing" textLength="177.6286" x="1419.7362" y="727.1047">Enter trainer id</text><rect fill="#EEF4FF" height="68.75" rx="26.0417" ry="26.0417" style="stroke:#3B5BDB;stroke-width:2.0833;" width="347.2666" x="1334.9172" y="827.0833"/><text fill="#000000" font-family="Helvetica" font-size="27.0833" lengthAdjust="spacing" textLength="305.6" x="1355.7505" y="868.7714">Fetch feedback by trainer</text><rect fill="#EEF4FF" height="68.75" rx="26.0417" ry="26.0417" style="stroke:#3B5BDB;stroke-width:2.0833;" width="208.7819" x="1787.8362" y="678.125"/><text fill="#000000" font-family="Helvetica" font-size="27.0833" lengthAdjust="spacing" textLength="167.1153" x="1808.6695" y="719.813">Enter batch id</text><rect fill="#EEF4FF" height="68.75" rx="26.0417" ry="26.0417" style="stroke:#3B5BDB;stroke-width:2.0833;" width="336.7533" x="1723.8505" y="819.7917"/><text fill="#000000" font-family="Helvetica" font-size="27.0833" lengthAdjust="spacing" textLength="295.0867" x="1744.6838" y="861.4797">Fetch feedback by batch</text><rect fill="#EEF4FF" height="68.75" rx="26.0417" ry="26.0417" style="stroke:#3B5BDB;stroke-width:2.0833;" width="288.5376" x="1401.9246" y="1110.4167"/><text fill="#000000" font-family="Helvetica" font-size="27.0833" lengthAdjust="spacing" textLength="246.8709" x="1422.758" y="1152.1047">Display feedback list</text><polygon fill="#FFF3BF" points="2166.6768,566.6667,2335.26,566.6667,2360.26,591.6667,2335.26,616.6667,2166.6768,616.6667,2141.6768,591.6667,2166.6768,566.6667" style="stroke:#F08C00;stroke-width:2.0833;stroke-linejoin:miter;stroke-miterlimit:10;"/><text fill="#495057" font-family="Helvetica" font-size="27.0833" lengthAdjust="spacing" textLength="97.8729" x="2259.3018" y="637.5214">average</text><text fill="#1C2536" font-family="Helvetica" font-size="27.0833" lengthAdjust="spacing" textLength="168.5832" x="2166.6768" y="598.9797">Which report?</text><rect fill="#EEF4FF" height="68.75" rx="26.0417" ry="26.0417" style="stroke:#3B5BDB;stroke-width:2.0833;" width="302.066" x="2099.9354" y="685.4167"/><text fill="#000000" font-family="Helvetica" font-size="27.0833" lengthAdjust="spacing" textLength="260.3994" x="2120.7687" y="727.1047">Compute AVG(rating)</text><polygon fill="#FFF3BF" points="2527.9928,566.6667,2696.5759,566.6667,2721.5759,591.6667,2696.5759,616.6667,2527.9928,616.6667,2502.9928,591.6667,2527.9928,566.6667" style="stroke:#F08C00;stroke-width:2.0833;stroke-linejoin:miter;stroke-miterlimit:10;"/><text fill="#495057" font-family="Helvetica" font-size="27.0833" lengthAdjust="spacing" textLength="51.1912" x="2620.6177" y="637.5214">best</text><text fill="#1C2536" font-family="Helvetica" font-size="27.0833" lengthAdjust="spacing" textLength="168.5832" x="2527.9928" y="598.9797">Which report?</text><rect fill="#EEF4FF" height="68.75" rx="26.0417" ry="26.0417" style="stroke:#3B5BDB;stroke-width:2.0833;" width="378.8991" x="2422.8348" y="685.4167"/><text fill="#000000" font-family="Helvetica" font-size="27.0833" lengthAdjust="spacing" textLength="337.2325" x="2443.6681" y="727.1047">Find highest average trainer</text><polygon fill="#FFF3BF" points="2943.2755,566.6667,3111.8586,566.6667,3136.8586,591.6667,3111.8586,616.6667,2943.2755,616.6667,2918.2755,591.6667,2943.2755,566.6667" style="stroke:#F08C00;stroke-width:2.0833;stroke-linejoin:miter;stroke-miterlimit:10;"/><text fill="#495057" font-family="Helvetica" font-size="27.0833" lengthAdjust="spacing" textLength="76.767" x="3035.9004" y="637.5214">lowest</text><text fill="#1C2536" font-family="Helvetica" font-size="27.0833" lengthAdjust="spacing" textLength="168.5832" x="2943.2755" y="598.9797">Which report?</text><text fill="#495057" font-family="Helvetica" font-size="27.0833" lengthAdjust="spacing" textLength="102.3692" x="3136.8586" y="585.438">trainings</text><rect fill="#EEF4FF" height="68.75" rx="26.0417" ry="26.0417" style="stroke:#3B5BDB;stroke-width:2.0833;" width="368.3329" x="2843.4006" y="685.4167"/><text fill="#000000" font-family="Helvetica" font-size="27.0833" lengthAdjust="spacing" textLength="326.6663" x="2864.2339" y="727.1047">Find lowest average trainer</text><rect fill="#EEF4FF" height="68.75" rx="26.0417" ry="26.0417" style="stroke:#3B5BDB;stroke-width:2.0833;" width="219.2952" x="3303.4144" y="648.4375"/><text fill="#000000" font-family="Helvetica" font-size="27.0833" lengthAdjust="spacing" textLength="177.6286" x="3324.2477" y="690.1255">Enter trainer id</text><rect fill="#EEF4FF" height="68.75" rx="26.0417" ry="26.0417" style="stroke:#3B5BDB;stroke-width:2.0833;" width="319.3237" x="3253.4002" y="790.1042"/><text fill="#000000" font-family="Helvetica" font-size="27.0833" lengthAdjust="spacing" textLength="277.6571" x="3274.2335" y="831.7922">Count trainer's batches</text><rect fill="#FFF4E6" height="68.75" rx="26.0417" ry="26.0417" style="stroke:#3B5BDB;stroke-width:2.0833;" width="282.4941" x="2684.6659" y="1051.0417"/><text fill="#000000" font-family="Helvetica" font-size="27.0833" lengthAdjust="spacing" textLength="240.8274" x="2705.4993" y="1092.7297">Display report result</text><rect fill="#EEF4FF" height="68.75" rx="26.0417" ry="26.0417" style="stroke:#3B5BDB;stroke-width:2.0833;" width="287.0829" x="3593.5572" y="514.5833"/><text fill="#000000" font-family="Helvetica" font-size="27.0833" lengthAdjust="spacing" textLength="245.4163" x="3614.3906" y="556.2714">Shutdown Hibernate</text><ellipse cx="3737.0987" cy="679.1667" fill="none" rx="22.9167" ry="22.9167" style="stroke:#222222;stroke-width:2.0833;"/><ellipse cx="3737.0987" cy="679.1667" fill="#222222" rx="12.5" ry="12.5" style="stroke:#222222;stroke-width:2.0833;"/><polygon fill="#FFF3BF" points="1926.9043,1541.6667,1926.9043,1541.6667,1951.9043,1566.6667,1926.9043,1591.6667,1926.9043,1591.6667,1901.9043,1566.6667,1926.9043,1541.6667" style="stroke:#F08C00;stroke-width:2.0833;stroke-linejoin:miter;stroke-miterlimit:10;"/><polygon fill="#FFF3BF" points="1926.9043,187.5,1951.9043,212.5,1926.9043,237.5,1901.9043,212.5,1926.9043,187.5" style="stroke:#F08C00;stroke-width:2.0833;stroke-linejoin:miter;stroke-miterlimit:10;"/><polygon fill="#FFF3BF" points="1841.8523,1633.3333,2011.9563,1633.3333,2036.9563,1658.3333,2011.9563,1683.3333,1841.8523,1683.3333,1816.8523,1658.3333,1841.8523,1633.3333" style="stroke:#F08C00;stroke-width:2.0833;stroke-linejoin:miter;stroke-miterlimit:10;"/><text fill="#495057" font-family="Helvetica" font-size="27.0833" lengthAdjust="spacing" textLength="30.1249" x="1935.2376" y="1704.188">no</text><text fill="#1C2536" font-family="Helvetica" font-size="27.0833" lengthAdjust="spacing" textLength="170.104" x="1841.8523" y="1665.6464">more actions?</text><text fill="#495057" font-family="Helvetica" font-size="27.0833" lengthAdjust="spacing" textLength="42.1458" x="2036.9563" y="1652.1047">yes</text><ellipse cx="1926.9043" cy="1771.8964" fill="none" rx="22.9167" ry="22.9167" style="stroke:#222222;stroke-width:2.0833;"/><ellipse cx="1926.9043" cy="1771.8964" fill="#222222" rx="12.5" ry="12.5" style="stroke:#222222;stroke-width:2.0833;"/><line style="stroke:#495057;stroke-width:2.0833;" x1="360.0545" x2="360.0545" y1="827.0833" y2="900"/><polygon fill="#495057" points="351.7212,879.1667,360.0545,900,368.3879,879.1667,360.0545,887.5" style="stroke:#495057;stroke-width:2.0833;stroke-linejoin:miter;stroke-miterlimit:10;"/><line style="stroke:#495057;stroke-width:2.0833;" x1="360.0545" x2="360.0545" y1="995.8333" y2="1054.1667"/><polygon fill="#495057" points="351.7212,1033.3333,360.0545,1054.1667,368.3879,1033.3333,360.0545,1041.6667" style="stroke:#495057;stroke-width:2.0833;stroke-linejoin:miter;stroke-miterlimit:10;"/><line style="stroke:#495057;stroke-width:2.0833;" x1="189.6693" x2="189.6693" y1="1335.4167" y2="1377.0833"/><polygon fill="#495057" points="181.336,1356.25,189.6693,1377.0833,198.0026,1356.25,189.6693,1364.5833" style="stroke:#495057;stroke-width:2.0833;stroke-linejoin:miter;stroke-miterlimit:10;"/><line style="stroke:#495057;stroke-width:2.0833;" x1="530.4398" x2="530.4398" y1="1335.4167" y2="1377.0833"/><polygon fill="#495057" points="522.1064,1356.25,530.4398,1377.0833,538.7731,1356.25,530.4398,1364.5833" style="stroke:#495057;stroke-width:2.0833;stroke-linejoin:miter;stroke-miterlimit:10;"/><line style="stroke:#495057;stroke-width:2.0833;" x1="265.799" x2="189.6693" y1="1220.8333" y2="1220.8333"/><line style="stroke:#495057;stroke-width:2.0833;" x1="189.6693" x2="189.6693" y1="1220.8333" y2="1266.6667"/><polygon fill="#495057" points="181.336,1245.8333,189.6693,1266.6667,198.0026,1245.8333,189.6693,1254.1667" style="stroke:#495057;stroke-width:2.0833;stroke-linejoin:miter;stroke-miterlimit:10;"/><line style="stroke:#495057;stroke-width:2.0833;" x1="454.3101" x2="530.4398" y1="1220.8333" y2="1220.8333"/><line style="stroke:#495057;stroke-width:2.0833;" x1="530.4398" x2="530.4398" y1="1220.8333" y2="1266.6667"/><polygon fill="#495057" points="522.1064,1245.8333,530.4398,1266.6667,538.7731,1245.8333,530.4398,1254.1667" style="stroke:#495057;stroke-width:2.0833;stroke-linejoin:miter;stroke-miterlimit:10;"/><line style="stroke:#495057;stroke-width:2.0833;" x1="189.6693" x2="189.6693" y1="1445.8333" y2="1483.3333"/><polygon fill="#495057" points="181.336,1462.5,189.6693,1483.3333,198.0026,1462.5,189.6693,1470.8333" style="stroke:#495057;stroke-width:2.0833;stroke-linejoin:miter;stroke-miterlimit:10;"/><line style="stroke:#495057;stroke-width:2.0833;" x1="530.4398" x2="530.4398" y1="1445.8333" y2="1483.3333"/><polygon fill="#495057" points="522.1064,1462.5,530.4398,1483.3333,538.7731,1462.5,530.4398,1470.8333" style="stroke:#495057;stroke-width:2.0833;stroke-linejoin:miter;stroke-miterlimit:10;"/><line style="stroke:#495057;stroke-width:2.0833;" x1="189.6693" x2="530.4398" y1="1483.3333" y2="1483.3333"/><line style="stroke:#495057;stroke-width:2.0833;" x1="360.0545" x2="360.0545" y1="1122.9167" y2="1195.8333"/><polygon fill="#495057" points="351.7212,1175,360.0545,1195.8333,368.3879,1175,360.0545,1183.3333" style="stroke:#495057;stroke-width:2.0833;stroke-linejoin:miter;stroke-miterlimit:10;"/><line style="stroke:#495057;stroke-width:2.0833;" x1="484.0108" x2="360.0545" y1="710.4167" y2="710.4167"/><line style="stroke:#495057;stroke-width:2.0833;" x1="360.0545" x2="360.0545" y1="710.4167" y2="758.3333"/><polygon fill="#495057" points="351.7212,737.5,360.0545,758.3333,368.3879,737.5,360.0545,745.8333" style="stroke:#495057;stroke-width:2.0833;stroke-linejoin:miter;stroke-miterlimit:10;"/><line style="stroke:#495057;stroke-width:2.0833;" x1="759.789" x2="883.7453" y1="710.4167" y2="710.4167"/><line style="stroke:#495057;stroke-width:2.0833;" x1="883.7453" x2="883.7453" y1="710.4167" y2="758.3333"/><polygon fill="#495057" points="875.412,737.5,883.7453,758.3333,892.0787,737.5,883.7453,745.8333" style="stroke:#495057;stroke-width:2.0833;stroke-linejoin:miter;stroke-miterlimit:10;"/><line style="stroke:#495057;stroke-width:2.0833;" x1="360.0545" x2="360.0545" y1="1483.3333" y2="1520.8333"/><polygon fill="#495057" points="351.7212,1500,360.0545,1520.8333,368.3879,1500,360.0545,1508.3333" style="stroke:#495057;stroke-width:2.0833;stroke-linejoin:miter;stroke-miterlimit:10;"/><line style="stroke:#495057;stroke-width:2.0833;" x1="883.7453" x2="883.7453" y1="827.0833" y2="1520.8333"/><polygon fill="#495057" points="875.412,1500,883.7453,1520.8333,892.0787,1500,883.7453,1508.3333" style="stroke:#495057;stroke-width:2.0833;stroke-linejoin:miter;stroke-miterlimit:10;"/><line style="stroke:#495057;stroke-width:2.0833;" x1="360.0545" x2="883.7453" y1="1520.8333" y2="1520.8333"/><line style="stroke:#495057;stroke-width:2.0833;" x1="621.8999" x2="621.8999" y1="610.4167" y2="683.3333"/><polygon fill="#495057" points="613.5666,662.5,621.8999,683.3333,630.2333,662.5,621.8999,670.8333" style="stroke:#495057;stroke-width:2.0833;stroke-linejoin:miter;stroke-miterlimit:10;"/><line style="stroke:#495057;stroke-width:2.0833;" x1="1508.5505" x2="1508.5505" y1="754.1667" y2="827.0833"/><polygon fill="#495057" points="1500.2172,806.25,1508.5505,827.0833,1516.8839,806.25,1508.5505,814.5833" style="stroke:#495057;stroke-width:2.0833;stroke-linejoin:miter;stroke-miterlimit:10;"/><line style="stroke:#495057;stroke-width:2.0833;" x1="1892.2272" x2="1892.2272" y1="746.875" y2="819.7917"/><polygon fill="#495057" points="1883.8938,798.9583,1892.2272,819.7917,1900.5605,798.9583,1892.2272,807.2917" style="stroke:#495057;stroke-width:2.0833;stroke-linejoin:miter;stroke-miterlimit:10;"/><line style="stroke:#495057;stroke-width:2.0833;" x1="1183.3501" x2="1183.3501" y1="616.6667" y2="685.4167"/><polygon fill="#495057" points="1175.0168,664.5833,1183.3501,685.4167,1191.6835,664.5833,1183.3501,672.9167" style="stroke:#495057;stroke-width:2.0833;stroke-linejoin:miter;stroke-miterlimit:10;"/><line style="stroke:#495057;stroke-width:2.0833;" x1="1183.3501" x2="1183.3501" y1="754.1667" y2="1037.5"/><polygon fill="#495057" points="1175.0168,1016.6667,1183.3501,1037.5,1191.6835,1016.6667,1183.3501,1025" style="stroke:#495057;stroke-width:2.0833;stroke-linejoin:miter;stroke-miterlimit:10;"/><line style="stroke:#495057;stroke-width:2.0833;" x1="1508.5505" x2="1508.5505" y1="616.6667" y2="685.4167"/><polygon fill="#495057" points="1500.2172,664.5833,1508.5505,685.4167,1516.8839,664.5833,1508.5505,672.9167" style="stroke:#495057;stroke-width:2.0833;stroke-linejoin:miter;stroke-miterlimit:10;"/><line style="stroke:#495057;stroke-width:2.0833;" x1="1508.5505" x2="1508.5505" y1="895.8333" y2="1037.5"/><polygon fill="#495057" points="1500.2172,1016.6667,1508.5505,1037.5,1516.8839,1016.6667,1508.5505,1025" style="stroke:#495057;stroke-width:2.0833;stroke-linejoin:miter;stroke-miterlimit:10;"/><line style="stroke:#495057;stroke-width:2.0833;" x1="1254.2781" x2="1437.6226" y1="591.6667" y2="591.6667"/><polygon fill="#495057" points="1416.7892,583.3333,1437.6226,591.6667,1416.7892,600,1425.1226,591.6667" style="stroke:#495057;stroke-width:2.0833;stroke-linejoin:miter;stroke-miterlimit:10;"/><line style="stroke:#495057;stroke-width:2.0833;" x1="1546.1934" x2="1183.3501" y1="514.5833" y2="514.5833"/><line style="stroke:#495057;stroke-width:2.0833;" x1="1183.3501" x2="1183.3501" y1="514.5833" y2="566.6667"/><polygon fill="#495057" points="1175.0168,545.8333,1183.3501,566.6667,1191.6835,545.8333,1183.3501,554.1667" style="stroke:#495057;stroke-width:2.0833;stroke-linejoin:miter;stroke-miterlimit:10;"/><line style="stroke:#495057;stroke-width:2.0833;" x1="1579.4785" x2="1892.2272" y1="591.6667" y2="591.6667"/><line style="stroke:#495057;stroke-width:2.0833;" x1="1892.2272" x2="1892.2272" y1="591.6667" y2="678.125"/><polygon fill="#495057" points="1883.8938,657.2917,1892.2272,678.125,1900.5605,657.2917,1892.2272,665.625" style="stroke:#495057;stroke-width:2.0833;stroke-linejoin:miter;stroke-miterlimit:10;"/><line style="stroke:#495057;stroke-width:2.0833;" x1="1892.2272" x2="1892.2272" y1="888.5417" y2="1037.5"/><polygon fill="#495057" points="1883.8938,1016.6667,1892.2272,1037.5,1900.5605,1016.6667,1892.2272,1025" style="stroke:#495057;stroke-width:2.0833;stroke-linejoin:miter;stroke-miterlimit:10;"/><line style="stroke:#495057;stroke-width:2.0833;" x1="1183.3501" x2="1892.2272" y1="1037.5" y2="1037.5"/><line style="stroke:#495057;stroke-width:2.0833;" x1="1546.1934" x2="1546.1934" y1="1037.5" y2="1110.4167"/><polygon fill="#495057" points="1537.8601,1089.5833,1546.1934,1110.4167,1554.5268,1089.5833,1546.1934,1097.9167" style="stroke:#495057;stroke-width:2.0833;stroke-linejoin:miter;stroke-miterlimit:10;"/><line style="stroke:#495057;stroke-width:2.0833;" x1="3413.062" x2="3413.062" y1="717.1875" y2="790.1042"/><polygon fill="#495057" points="3404.7287,769.2708,3413.062,790.1042,3421.3954,769.2708,3413.062,777.6042" style="stroke:#495057;stroke-width:2.0833;stroke-linejoin:miter;stroke-miterlimit:10;"/><line style="stroke:#495057;stroke-width:2.0833;" x1="2250.9684" x2="2250.9684" y1="616.6667" y2="685.4167"/><polygon fill="#495057" points="2242.6351,664.5833,2250.9684,685.4167,2259.3018,664.5833,2250.9684,672.9167" style="stroke:#495057;stroke-width:2.0833;stroke-linejoin:miter;stroke-miterlimit:10;"/><line style="stroke:#495057;stroke-width:2.0833;" x1="2250.9684" x2="2250.9684" y1="754.1667" y2="992.7083"/><polygon fill="#495057" points="2242.6351,971.875,2250.9684,992.7083,2259.3018,971.875,2250.9684,980.2083" style="stroke:#495057;stroke-width:2.0833;stroke-linejoin:miter;stroke-miterlimit:10;"/><line style="stroke:#495057;stroke-width:2.0833;" x1="2612.2843" x2="2612.2843" y1="616.6667" y2="685.4167"/><polygon fill="#495057" points="2603.951,664.5833,2612.2843,685.4167,2620.6177,664.5833,2612.2843,672.9167" style="stroke:#495057;stroke-width:2.0833;stroke-linejoin:miter;stroke-miterlimit:10;"/><line style="stroke:#495057;stroke-width:2.0833;" x1="2612.2843" x2="2612.2843" y1="754.1667" y2="992.7083"/><polygon fill="#495057" points="2603.951,971.875,2612.2843,992.7083,2620.6177,971.875,2612.2843,980.2083" style="stroke:#495057;stroke-width:2.0833;stroke-linejoin:miter;stroke-miterlimit:10;"/><line style="stroke:#495057;stroke-width:2.0833;" x1="3027.567" x2="3027.567" y1="616.6667" y2="685.4167"/><polygon fill="#495057" points="3019.2337,664.5833,3027.567,685.4167,3035.9004,664.5833,3027.567,672.9167" style="stroke:#495057;stroke-width:2.0833;stroke-linejoin:miter;stroke-miterlimit:10;"/><line style="stroke:#495057;stroke-width:2.0833;" x1="3027.567" x2="3027.567" y1="754.1667" y2="992.7083"/><polygon fill="#495057" points="3019.2337,971.875,3027.567,992.7083,3035.9004,971.875,3027.567,980.2083" style="stroke:#495057;stroke-width:2.0833;stroke-linejoin:miter;stroke-miterlimit:10;"/><line style="stroke:#495057;stroke-width:2.0833;" x1="2360.26" x2="2502.9928" y1="591.6667" y2="591.6667"/><polygon fill="#495057" points="2482.1594,583.3333,2502.9928,591.6667,2482.1594,600,2490.4928,591.6667" style="stroke:#495057;stroke-width:2.0833;stroke-linejoin:miter;stroke-miterlimit:10;"/><line style="stroke:#495057;stroke-width:2.0833;" x1="2721.5759" x2="2918.2755" y1="591.6667" y2="591.6667"/><polygon fill="#495057" points="2897.4421,583.3333,2918.2755,591.6667,2897.4421,600,2905.7755,591.6667" style="stroke:#495057;stroke-width:2.0833;stroke-linejoin:miter;stroke-miterlimit:10;"/><line style="stroke:#495057;stroke-width:2.0833;" x1="2825.913" x2="2250.9684" y1="514.5833" y2="514.5833"/><line style="stroke:#495057;stroke-width:2.0833;" x1="2250.9684" x2="2250.9684" y1="514.5833" y2="566.6667"/><polygon fill="#495057" points="2242.6351,545.8333,2250.9684,566.6667,2259.3018,545.8333,2250.9684,554.1667" style="stroke:#495057;stroke-width:2.0833;stroke-linejoin:miter;stroke-miterlimit:10;"/><line style="stroke:#495057;stroke-width:2.0833;" x1="3136.8586" x2="3413.062" y1="591.6667" y2="591.6667"/><line style="stroke:#495057;stroke-width:2.0833;" x1="3413.062" x2="3413.062" y1="591.6667" y2="648.4375"/><polygon fill="#495057" points="3404.7287,627.6042,3413.062,648.4375,3421.3954,627.6042,3413.062,635.9375" style="stroke:#495057;stroke-width:2.0833;stroke-linejoin:miter;stroke-miterlimit:10;"/><line style="stroke:#495057;stroke-width:2.0833;" x1="3413.062" x2="3413.062" y1="858.8542" y2="992.7083"/><polygon fill="#495057" points="3404.7287,971.875,3413.062,992.7083,3421.3954,971.875,3413.062,980.2083" style="stroke:#495057;stroke-width:2.0833;stroke-linejoin:miter;stroke-miterlimit:10;"/><line style="stroke:#495057;stroke-width:2.0833;" x1="2250.9684" x2="3413.062" y1="992.7083" y2="992.7083"/><line style="stroke:#495057;stroke-width:2.0833;" x1="2825.913" x2="2825.913" y1="992.7083" y2="1051.0417"/><polygon fill="#495057" points="2817.5797,1030.2083,2825.913,1051.0417,2834.2463,1030.2083,2825.913,1038.5417" style="stroke:#495057;stroke-width:2.0833;stroke-linejoin:miter;stroke-miterlimit:10;"/><line style="stroke:#495057;stroke-width:2.0833;" x1="3737.0987" x2="3737.0987" y1="583.3333" y2="656.25"/><polygon fill="#495057" points="3728.7654,635.4167,3737.0987,656.25,3745.432,635.4167,3737.0987,643.75" style="stroke:#495057;stroke-width:2.0833;stroke-linejoin:miter;stroke-miterlimit:10;"/><line style="stroke:#495057;stroke-width:2.0833;" x1="1817.5929" x2="621.8999" y1="414.5833" y2="414.5833"/><line style="stroke:#495057;stroke-width:2.0833;" x1="621.8999" x2="621.8999" y1="414.5833" y2="514.5833"/><polygon fill="#495057" points="613.5666,493.75,621.8999,514.5833,630.2333,493.75,621.8999,502.0833" style="stroke:#495057;stroke-width:2.0833;stroke-linejoin:miter;stroke-miterlimit:10;"/><text fill="#495057" font-family="Helvetica" font-size="27.0833" lengthAdjust="spacing" textLength="210.7554" x="621.8999" y="471.8964">Submit Feedback</text><line style="stroke:#495057;stroke-width:2.0833;" x1="2036.2157" x2="3737.0987" y1="414.5833" y2="414.5833"/><line style="stroke:#495057;stroke-width:2.0833;" x1="3737.0987" x2="3737.0987" y1="414.5833" y2="514.5833"/><polygon fill="#495057" points="3728.7654,493.75,3737.0987,514.5833,3745.432,493.75,3737.0987,502.0833" style="stroke:#495057;stroke-width:2.0833;stroke-linejoin:miter;stroke-miterlimit:10;"/><text fill="#495057" font-family="Helvetica" font-size="27.0833" lengthAdjust="spacing" textLength="45.1477" x="3737.0987" y="471.8964">Exit</text><line style="stroke:#495057;stroke-width:2.0833;" x1="1546.1934" x2="1546.1934" y1="414.5833" y2="514.5833"/><text fill="#495057" font-family="Helvetica" font-size="27.0833" lengthAdjust="spacing" textLength="185.1664" x="1546.1934" y="461.4797">View Feedback</text><line style="stroke:#495057;stroke-width:2.0833;" x1="2825.913" x2="2825.913" y1="414.5833" y2="514.5833"/><text fill="#495057" font-family="Helvetica" font-size="27.0833" lengthAdjust="spacing" textLength="94.8313" x="2825.913" y="461.4797">Reports</text><line style="stroke:#495057;stroke-width:2.0833;" x1="621.8999" x2="621.8999" y1="1520.8333" y2="1566.6667"/><line style="stroke:#495057;stroke-width:2.0833;" x1="621.8999" x2="1901.9043" y1="1566.6667" y2="1566.6667"/><polygon fill="#495057" points="1881.071,1558.3333,1901.9043,1566.6667,1881.071,1575,1889.4043,1566.6667" style="stroke:#495057;stroke-width:2.0833;stroke-linejoin:miter;stroke-miterlimit:10;"/><line style="stroke:#495057;stroke-width:2.0833;" x1="2825.913" x2="2825.913" y1="1119.7917" y2="1566.6667"/><line style="stroke:#495057;stroke-width:2.0833;" x1="2825.913" x2="1951.9043" y1="1566.6667" y2="1566.6667"/><polygon fill="#495057" points="1972.7376,1558.3333,1951.9043,1566.6667,1972.7376,1575,1964.4043,1566.6667" style="stroke:#495057;stroke-width:2.0833;stroke-linejoin:miter;stroke-miterlimit:10;"/><line style="stroke:#495057;stroke-width:2.0833;" x1="1546.1934" x2="1546.1934" y1="1179.1667" y2="1566.6667"/><polygon fill="#495057" points="1537.8601,1545.8333,1546.1934,1566.6667,1554.5268,1545.8333,1546.1934,1554.1667" style="stroke:#495057;stroke-width:2.0833;stroke-linejoin:miter;stroke-miterlimit:10;"/><line style="stroke:#495057;stroke-width:2.0833;" x1="1926.9043" x2="1926.9043" y1="347.9167" y2="389.5833"/><polygon fill="#495057" points="1918.571,368.75,1926.9043,389.5833,1935.2376,368.75,1926.9043,377.0833" style="stroke:#495057;stroke-width:2.0833;stroke-linejoin:miter;stroke-miterlimit:10;"/><line style="stroke:#495057;stroke-width:2.0833;" x1="1926.9043" x2="1926.9043" y1="237.5" y2="279.1667"/><polygon fill="#495057" points="1918.571,258.3333,1926.9043,279.1667,1935.2376,258.3333,1926.9043,266.6667" style="stroke:#495057;stroke-width:2.0833;stroke-linejoin:miter;stroke-miterlimit:10;"/><line style="stroke:#495057;stroke-width:2.0833;" x1="2036.9563" x2="3905.6402" y1="1658.3333" y2="1658.3333"/><polygon fill="#495057" points="3897.3068,1053.125,3905.6402,1032.2917,3913.9735,1053.125,3905.6402,1044.7917" style="stroke:#495057;stroke-width:2.0833;stroke-linejoin:miter;stroke-miterlimit:10;"/><line style="stroke:#495057;stroke-width:2.0833;" x1="3905.6402" x2="3905.6402" y1="212.5" y2="1658.3333"/><line style="stroke:#495057;stroke-width:2.0833;" x1="3905.6402" x2="1951.9043" y1="212.5" y2="212.5"/><polygon fill="#495057" points="1972.7376,204.1667,1951.9043,212.5,1972.7376,220.8333,1964.4043,212.5" style="stroke:#495057;stroke-width:2.0833;stroke-linejoin:miter;stroke-miterlimit:10;"/><line style="stroke:#495057;stroke-width:2.0833;" x1="1926.9043" x2="1926.9043" y1="1591.6667" y2="1633.3333"/><polygon fill="#495057" points="1918.571,1612.5,1926.9043,1633.3333,1935.2376,1612.5,1926.9043,1620.8333" style="stroke:#495057;stroke-width:2.0833;stroke-linejoin:miter;stroke-miterlimit:10;"/><line style="stroke:#495057;stroke-width:2.0833;" x1="1926.9043" x2="1926.9043" y1="145.8333" y2="187.5"/><polygon fill="#495057" points="1918.571,166.6667,1926.9043,187.5,1935.2376,166.6667,1926.9043,175" style="stroke:#495057;stroke-width:2.0833;stroke-linejoin:miter;stroke-miterlimit:10;"/><line style="stroke:#495057;stroke-width:2.0833;" x1="1926.9043" x2="1926.9043" y1="1683.3333" y2="1748.9797"/><polygon fill="#495057" points="1918.571,1728.1464,1926.9043,1748.9797,1935.2376,1728.1464,1926.9043,1736.4797" style="stroke:#495057;stroke-width:2.0833;stroke-linejoin:miter;stroke-miterlimit:10;"/><?plantuml-src XLN1Rjf04BtxAqQAr1g9gX13ceGeKG2xaQesLOZIIowBFU1Lbbsqkq3fgH_HB-oNT8pjjI4cvOAzy-RDcxUpQ_F2vP9fje1aoU6qq_6CMvco-6MkrKec8oMKXfDezwiXJCeIjU5o3ZCc3DOY2SxOIjX8IVkDBH3kKApHyfWrOoRy5q8tg0LljLQRecxlej_fVpeCPdb70R7bQswtmyCMmZ3gxRNWa4edg0jKCEmFnyEZgCUKnoyIZO5k0sRCsKB9PDZWNZ2CtaYeAuWwvwEzpJW0rvhlZaxxmLa3T6APBa6dqKNOwpM0migQJj0DwWsDg0wtN4d2JEnM8AI2I_GyooszF29XUl3tzn-849DiMk0TFE1IQMikNG4WnNEYypoJwV4qBf5P3-1oageDB52k1lHcDjp6AVXVwHtYLF4ORreU1M9c4Fp9QhhWrXLgKO0OGcbHWzMCP66xUD1jcjoCYoUc_ImripIWROZLWcfPCzYbyXduJqpm1AZRbRrvbZx1mQ1jGvu1tG_zLWjiYXByBPgy91KTufpBh9OqBCxi6RZ8Yel4QMm3kVNoB0jLyB4KIa-vmEcMDBhixwWDDnPcfPd--FQ-LOOpmHEsnWJklzmqo2A24NL87ZKeAysMkAdegJHSNPsCW-XYV7vzNK1HP7PBLUDzK4BiCkhCMMeKXK4OkDIo2jBfr4q0f7cQUKrLyiHrjY4iep_6aJEugNZYrD3-JEnyYjKIdKbC25ScmintMd4s39oUrvcqFyNcEOBwnEdwxkNCpjmgTL1hc5PtEtz0Luxh6sGxoC3RT_5opCrIi6s553H0WygVuZ1MploWcoi5lLkk35gZPdDqecYEw4WWt3vzzlEpqDftgP5bYiPMFdEPGChdAIr2mV_QaADSGcrUiULhnyd0tosHMlF_tHhHlMpBm7kJsulcgC6vFlepzC4gnZBgXMSqbixiy2Sl9DCqhonz62NSyIbgoIpcpCQgPPP05VBxhhWDOPDokb7zXT88-G4pP0Ot-H47gMn-MZA2Vm00?></g></svg>