<svg xmlns="http://www.w3.org/2000/svg" xmlns:xlink="http://www.w3.org/1999/xlink" contentStyleType="text/css" data-diagram-type="ACTIVITY" height="1835.4167px" preserveAspectRatio="none" style="width:3856px;height:1835px;background:#FFFFFF;" version="1.1" viewBox="0 0 3856 1835" width="3856.25px" zoomAndPan="magnify"><?plantuml 1.2026.6?><defs/><g><g class="title" data-source-line="18"><text fill="#000000" font-family="Helvetica" font-size="29.1667" font-weight="700" lengthAdjust="spacing" textLength="675.9033" x="1588.77" y="64.1256">Team 4 &#8212; Feedback &amp; Reports: Activity Diagram</text></g><ellipse cx="1875.68" cy="125" fill="#2F9E44" rx="20.8333" ry="20.8333" style="stroke:#222222;stroke-width:2.0833;"/><rect fill="#EEF4FF" height="68.75" rx="26.0417" ry="26.0417" style="stroke:#3B5BDB;stroke-width:2.0833;" width="184.6873" x="1783.3364" y="279.1667"/><text fill="#000000" font-family="Helvetica" font-size="27.0833" lengthAdjust="spacing" textLength="143.0206" x="1804.1697" y="320.8547">Show menu</text><polygon fill="#FFF3BF" points="1791.3686,389.5833,1959.9915,389.5833,1984.9915,414.5833,1959.9915,439.5833,1791.3686,439.5833,1766.3686,414.5833,1791.3686,389.5833" style="stroke:#F08C00;stroke-width:2.0833;stroke-linejoin:miter;stroke-miterlimit:10;"/><text fill="#1C2536" font-family="Helvetica" font-size="27.0833" lengthAdjust="spacing" textLength="168.6228" x="1791.3686" y="421.8964">Menu choice?</text><rect fill="#EEF4FF" height="95.8333" rx="26.0417" ry="26.0417" style="stroke:#3B5BDB;stroke-width:2.0833;" width="419.5241" x="412.1379" y="514.5833"/><text fill="#000000" font-family="Helvetica" font-size="27.0833" lengthAdjust="spacing" textLength="377.8575" x="432.9712" y="556.2714">Enter trainee, trainer, batch ids,</text><text fill="#000000" font-family="Helvetica" font-size="27.0833" lengthAdjust="spacing" textLength="207.7138" x="432.9712" y="583.3547">rating, comments</text><polygon fill="#FFF3BF" points="509.0108,683.3333,734.789,683.3333,759.789,710.4167,734.789,737.5,509.0108,737.5,484.0108,710.4167,509.0108,683.3333" style="stroke:#F08C00;stroke-width:2.0833;stroke-linejoin:miter;stroke-miterlimit:10;"/><text fill="#1C2536" font-family="Helvetica" font-size="27.0833" lengthAdjust="spacing" textLength="141.5395" x="509.0108" y="704.188">Valid input?</text><text fill="#1C2536" font-family="Helvetica" font-size="27.0833" lengthAdjust="spacing" textLength="225.7782" x="509.0108" y="731.2714">(ids set, rating 1-5)</text><text fill="#495057" font-family="Helvetica" font-size="27.0833" lengthAdjust="spacing" textLength="42.1458" x="441.865" y="704.188">yes</text><text fill="#495057" font-family="Helvetica" font-size="27.0833" lengthAdjust="spacing" textLength="30.1249" x="759.789" y="704.188">no</text><rect fill="#EEF4FF" height="68.75" rx="26.0417" ry="26.0417" style="stroke:#3B5BDB;stroke-width:2.0833;" width="250.941" x="234.584" y="758.3333"/><text fill="#000000" font-family="Helvetica" font-size="27.0833" lengthAdjust="spacing" textLength="209.2743" x="255.4174" y="800.0214">Begin transaction</text><rect fill="#EEF4FF" height="95.8333" rx="26.0417" ry="26.0417" style="stroke:#3B5BDB;stroke-width:2.0833;" width="377.3783" x="171.3654" y="900"/><text fill="#000000" font-family="Helvetica" font-size="27.0833" lengthAdjust="spacing" textLength="242.3747" x="192.1987" y="941.688">Build Feedback, link</text><text fill="#000000" font-family="Helvetica" font-size="27.0833" lengthAdjust="spacing" textLength="335.7117" x="192.1987" y="968.7714">trainer / trainee / batch by id</text><rect fill="#EEF4FF" height="68.75" rx="26.0417" ry="26.0417" style="stroke:#3B5BDB;stroke-width:2.0833;" width="326.1342" x="196.9874" y="1054.1667"/><text fill="#000000" font-family="Helvetica" font-size="27.0833" lengthAdjust="spacing" textLength="284.4676" x="217.8207" y="1095.8547">Persist feedback (DAO)</text><polygon fill="#FFF3BF" points="313.4125,1195.8333,406.6966,1195.8333,431.6966,1220.8333,406.6966,1245.8333,313.4125,1245.8333,288.4125,1220.8333,313.4125,1195.8333" style="stroke:#F08C00;stroke-width:2.0833;stroke-linejoin:miter;stroke-miterlimit:10;"/><text fill="#1C2536" font-family="Helvetica" font-size="27.0833" lengthAdjust="spacing" textLength="93.2841" x="313.4125" y="1228.1464">Commit</text><text fill="#495057" font-family="Helvetica" font-size="27.0833" lengthAdjust="spacing" textLength="97.8333" x="190.5792" y="1214.6047">success</text><text fill="#495057" font-family="Helvetica" font-size="27.0833" lengthAdjust="spacing" textLength="73.7651" x="431.6966" y="1214.6047">failure</text><rect fill="#D3F9D8" height="68.75" rx="26.0417" ry="26.0417" style="stroke:#3B5BDB;stroke-width:2.0833;" width="312.6719" x="33.3333" y="1266.6667"/><text fill="#000000" font-family="Helvetica" font-size="27.0833" lengthAdjust="spacing" textLength="271.0052" x="54.1667" y="1308.3547">Show new feedback id</text><rect fill="#FFE3E3" height="68.75" rx="26.0417" ry="26.0417" style="stroke:#3B5BDB;stroke-width:2.0833;" width="285.5357" x="387.6719" y="1266.6667"/><text fill="#000000" font-family="Helvetica" font-size="27.0833" lengthAdjust="spacing" textLength="243.869" x="408.5052" y="1308.3547">Rollback transaction</text><rect fill="#FFE3E3" height="68.75" rx="26.0417" ry="26.0417" style="stroke:#3B5BDB;stroke-width:2.0833;" width="174.1211" x="443.3792" y="1377.0833"/><text fill="#000000" font-family="Helvetica" font-size="27.0833" lengthAdjust="spacing" textLength="132.4544" x="464.2125" y="1418.7714">Show error</text><rect fill="#FFE3E3" height="68.75" rx="26.0417" ry="26.0417" style="stroke:#3B5BDB;stroke-width:2.0833;" width="296.0754" x="735.7076" y="758.3333"/><text fill="#000000" font-family="Helvetica" font-size="27.0833" lengthAdjust="spacing" textLength="254.4088" x="756.5409" y="800.0214">Show validation error</text><polygon fill="#FFF3BF" points="1137.4222,566.6667,1229.2781,566.6667,1254.2781,591.6667,1229.2781,616.6667,1137.4222,616.6667,1112.4222,591.6667,1137.4222,566.6667" style="stroke:#F08C00;stroke-width:2.0833;stroke-linejoin:miter;stroke-miterlimit:10;"/><text fill="#495057" font-family="Helvetica" font-size="27.0833" lengthAdjust="spacing" textLength="27.0966" x="1191.6835" y="637.5214">all</text><text fill="#1C2536" font-family="Helvetica" font-size="27.0833" lengthAdjust="spacing" textLength="91.8559" x="1137.4222" y="598.9797">Scope?</text><rect fill="#EEF4FF" height="68.75" rx="26.0417" ry="26.0417" style="stroke:#3B5BDB;stroke-width:2.0833;" width="261.4675" x="1052.6164" y="685.4167"/><text fill="#000000" font-family="Helvetica" font-size="27.0833" lengthAdjust="spacing" textLength="219.8008" x="1073.4497" y="727.1047">Fetch all feedback</text><polygon fill="#FFF3BF" points="1462.6226,566.6667,1554.4785,566.6667,1579.4785,591.6667,1554.4785,616.6667,1462.6226,616.6667,1437.6226,591.6667,1462.6226,566.6667" style="stroke:#F08C00;stroke-width:2.0833;stroke-linejoin:miter;stroke-miterlimit:10;"/><text fill="#495057" font-family="Helvetica" font-size="27.0833" lengthAdjust="spacing" textLength="112.8957" x="1516.8839" y="637.5214">by trainer</text><text fill="#1C2536" font-family="Helvetica" font-size="27.0833" lengthAdjust="spacing" textLength="91.8559" x="1462.6226" y="598.9797">Scope?</text><text fill="#495057" font-family="Helvetica" font-size="27.0833" lengthAdjust="spacing" textLength="102.3824" x="1579.4785" y="585.438">by batch</text><rect fill="#EEF4FF" height="68.75" rx="26.0417" ry="26.0417" style="stroke:#3B5BDB;stroke-width:2.0833;" width="219.2952" x="1398.9029" y="685.4167"/><text fill="#000000" font-family="Helvetica" font-size="27.0833" lengthAdjust="spacing" textLength="177.6286" x="1419.7362" y="727.1047">Enter trainer id</text><rect fill="#EEF4FF" height="68.75" rx="26.0417" ry="26.0417" style="stroke:#3B5BDB;stroke-width:2.0833;" width="347.2666" x="1334.9172" y="827.0833"/><text fill="#000000" font-family="Helvetica" font-size="27.0833" lengthAdjust="spacing" textLength="305.6" x="1355.7505" y="868.7714">Fetch feedback by trainer</text><rect fill="#EEF4FF" height="68.75" rx="26.0417" ry="26.0417" style="stroke:#3B5BDB;stroke-width:2.0833;" width="208.7819" x="1787.8362" y="678.125"/><text fill="#000000" font-family="Helvetica" font-size="27.0833" lengthAdjust="spacing" textLength="167.1153" x="1808.6695" y="719.813">Enter batch id</text><rect fill="#EEF4FF" height="68.75" rx="26.0417" ry="26.0417" style="stroke:#3B5BDB;stroke-width:2.0833;" width="336.7533" x="1723.8505" y="819.7917"/><text fill="#000000" font-family="Helvetica" font-size="27.0833" lengthAdjust="spacing" textLength="295.0867" x="1744.6838" y="861.4797">Fetch feedback by batch</text><rect fill="#EEF4FF" height="68.75" rx="26.0417" ry="26.0417" style="stroke:#3B5BDB;stroke-width:2.0833;" width="288.5376" x="1401.9246" y="1110.4167"/><text fill="#000000" font-family="Helvetica" font-size="27.0833" lengthAdjust="spacing" textLength="246.8709" x="1422.758" y="1152.1047">Display feedback list</text><polygon fill="#FFF3BF" points="2148.1786,566.6667,2316.7618,566.6667,2341.7618,591.6667,2316.7618,616.6667,2148.1786,616.6667,2123.1786,591.6667,2148.1786,566.6667" style="stroke:#F08C00;stroke-width:2.0833;stroke-linejoin:miter;stroke-miterlimit:10;"/><text fill="#495057" font-family="Helvetica" font-size="27.0833" lengthAdjust="spacing" textLength="97.8729" x="2240.8035" y="637.5214">average</text><text fill="#1C2536" font-family="Helvetica" font-size="27.0833" lengthAdjust="spacing" textLength="168.5832" x="2148.1786" y="598.9797">Which report?</text><rect fill="#EEF4FF" height="68.75" rx="26.0417" ry="26.0417" style="stroke:#3B5BDB;stroke-width:2.0833;" width="302.066" x="2081.4372" y="685.4167"/><text fill="#000000" font-family="Helvetica" font-size="27.0833" lengthAdjust="spacing" textLength="260.3994" x="2102.2705" y="727.1047">Compute AVG(rating)</text><polygon fill="#FFF3BF" points="2509.4945,566.6667,2678.0777,566.6667,2703.0777,591.6667,2678.0777,616.6667,2509.4945,616.6667,2484.4945,591.6667,2509.4945,566.6667" style="stroke:#F08C00;stroke-width:2.0833;stroke-linejoin:miter;stroke-miterlimit:10;"/><text fill="#495057" font-family="Helvetica" font-size="27.0833" lengthAdjust="spacing" textLength="51.1912" x="2602.1194" y="637.5214">best</text><text fill="#1C2536" font-family="Helvetica" font-size="27.0833" lengthAdjust="spacing" textLength="168.5832" x="2509.4945" y="598.9797">Which report?</text><rect fill="#EEF4FF" height="68.75" rx="26.0417" ry="26.0417" style="stroke:#3B5BDB;stroke-width:2.0833;" width="378.8991" x="2404.3365" y="685.4167"/><text fill="#000000" font-family="Helvetica" font-size="27.0833" lengthAdjust="spacing" textLength="337.2325" x="2425.1699" y="727.1047">Find highest average trainer</text><polygon fill="#FFF3BF" points="2924.7772,566.6667,3093.3604,566.6667,3118.3604,591.6667,3093.3604,616.6667,2924.7772,616.6667,2899.7772,591.6667,2924.7772,566.6667" style="stroke:#F08C00;stroke-width:2.0833;stroke-linejoin:miter;stroke-miterlimit:10;"/><text fill="#495057" font-family="Helvetica" font-size="27.0833" lengthAdjust="spacing" textLength="76.767" x="3017.4021" y="637.5214">lowest</text><text fill="#1C2536" font-family="Helvetica" font-size="27.0833" lengthAdjust="spacing" textLength="168.5832" x="2924.7772" y="598.9797">Which report?</text><text fill="#495057" font-family="Helvetica" font-size="27.0833" lengthAdjust="spacing" textLength="102.3692" x="3118.3604" y="585.438">trainings</text><rect fill="#EEF4FF" height="68.75" rx="26.0417" ry="26.0417" style="stroke:#3B5BDB;stroke-width:2.0833;" width="368.3329" x="2824.9023" y="685.4167"/><text fill="#000000" font-family="Helvetica" font-size="27.0833" lengthAdjust="spacing" textLength="326.6663" x="2845.7357" y="727.1047">Find lowest average trainer</text><rect fill="#EEF4FF" height="68.75" rx="26.0417" ry="26.0417" style="stroke:#3B5BDB;stroke-width:2.0833;" width="219.2952" x="3284.9162" y="648.4375"/><text fill="#000000" font-family="Helvetica" font-size="27.0833" lengthAdjust="spacing" textLength="177.6286" x="3305.7495" y="690.1255">Enter trainer id</text><rect fill="#EEF4FF" height="68.75" rx="26.0417" ry="26.0417" style="stroke:#3B5BDB;stroke-width:2.0833;" width="319.3237" x="3234.9019" y="790.1042"/><text fill="#000000" font-family="Helvetica" font-size="27.0833" lengthAdjust="spacing" textLength="277.6571" x="3255.7353" y="831.7922">Count trainer's batches</text><rect fill="#FFF4E6" height="68.75" rx="26.0417" ry="26.0417" style="stroke:#3B5BDB;stroke-width:2.0833;" width="282.4941" x="2666.1677" y="1051.0417"/><text fill="#000000" font-family="Helvetica" font-size="27.0833" lengthAdjust="spacing" textLength="240.8274" x="2687.001" y="1092.7297">Display report result</text><rect fill="#EEF4FF" height="68.75" rx="26.0417" ry="26.0417" style="stroke:#3B5BDB;stroke-width:2.0833;" width="184.6344" x="3575.059" y="514.5833"/><text fill="#000000" font-family="Helvetica" font-size="27.0833" lengthAdjust="spacing" textLength="142.9677" x="3595.8923" y="556.2714">Exit System</text><ellipse cx="3667.3762" cy="679.1667" fill="none" rx="22.9167" ry="22.9167" style="stroke:#222222;stroke-width:2.0833;"/><ellipse cx="3667.3762" cy="679.1667" fill="#222222" rx="12.5" ry="12.5" style="stroke:#222222;stroke-width:2.0833;"/><polygon fill="#FFF3BF" points="1875.68,1541.6667,1875.68,1541.6667,1900.68,1566.6667,1875.68,1591.6667,1875.68,1591.6667,1850.68,1566.6667,1875.68,1541.6667" style="stroke:#F08C00;stroke-width:2.0833;stroke-linejoin:miter;stroke-miterlimit:10;"/><polygon fill="#FFF3BF" points="1875.68,187.5,1900.68,212.5,1875.68,237.5,1850.68,212.5,1875.68,187.5" style="stroke:#F08C00;stroke-width:2.0833;stroke-linejoin:miter;stroke-miterlimit:10;"/><polygon fill="#FFF3BF" points="1790.6281,1633.3333,1960.732,1633.3333,1985.732,1658.3333,1960.732,1683.3333,1790.6281,1683.3333,1765.6281,1658.3333,1790.6281,1633.3333" style="stroke:#F08C00;stroke-width:2.0833;stroke-linejoin:miter;stroke-miterlimit:10;"/><text fill="#495057" font-family="Helvetica" font-size="27.0833" lengthAdjust="spacing" textLength="30.1249" x="1884.0134" y="1704.188">no</text><text fill="#1C2536" font-family="Helvetica" font-size="27.0833" lengthAdjust="spacing" textLength="170.104" x="1790.6281" y="1665.6464">more actions?</text><text fill="#495057" font-family="Helvetica" font-size="27.0833" lengthAdjust="spacing" textLength="42.1458" x="1985.732" y="1652.1047">yes</text><ellipse cx="1875.68" cy="1771.8964" fill="none" rx="22.9167" ry="22.9167" style="stroke:#222222;stroke-width:2.0833;"/><ellipse cx="1875.68" cy="1771.8964" fill="#222222" rx="12.5" ry="12.5" style="stroke:#222222;stroke-width:2.0833;"/><line style="stroke:#495057;stroke-width:2.0833;" x1="360.0545" x2="360.0545" y1="827.0833" y2="900"/><polygon fill="#495057" points="351.7212,879.1667,360.0545,900,368.3879,879.1667,360.0545,887.5" style="stroke:#495057;stroke-width:2.0833;stroke-linejoin:miter;stroke-miterlimit:10;"/><line style="stroke:#495057;stroke-width:2.0833;" x1="360.0545" x2="360.0545" y1="995.8333" y2="1054.1667"/><polygon fill="#495057" points="351.7212,1033.3333,360.0545,1054.1667,368.3879,1033.3333,360.0545,1041.6667" style="stroke:#495057;stroke-width:2.0833;stroke-linejoin:miter;stroke-miterlimit:10;"/><line style="stroke:#495057;stroke-width:2.0833;" x1="530.4398" x2="530.4398" y1="1335.4167" y2="1377.0833"/><polygon fill="#495057" points="522.1064,1356.25,530.4398,1377.0833,538.7731,1356.25,530.4398,1364.5833" style="stroke:#495057;stroke-width:2.0833;stroke-linejoin:miter;stroke-miterlimit:10;"/><line style="stroke:#495057;stroke-width:2.0833;" x1="288.4125" x2="189.6693" y1="1220.8333" y2="1220.8333"/><line style="stroke:#495057;stroke-width:2.0833;" x1="189.6693" x2="189.6693" y1="1220.8333" y2="1266.6667"/><polygon fill="#495057" points="181.336,1245.8333,189.6693,1266.6667,198.0026,1245.8333,189.6693,1254.1667" style="stroke:#495057;stroke-width:2.0833;stroke-linejoin:miter;stroke-miterlimit:10;"/><line style="stroke:#495057;stroke-width:2.0833;" x1="431.6966" x2="530.4398" y1="1220.8333" y2="1220.8333"/><line style="stroke:#495057;stroke-width:2.0833;" x1="530.4398" x2="530.4398" y1="1220.8333" y2="1266.6667"/><polygon fill="#495057" points="522.1064,1245.8333,530.4398,1266.6667,538.7731,1245.8333,530.4398,1254.1667" style="stroke:#495057;stroke-width:2.0833;stroke-linejoin:miter;stroke-miterlimit:10;"/><line style="stroke:#495057;stroke-width:2.0833;" x1="189.6693" x2="189.6693" y1="1335.4167" y2="1483.3333"/><polygon fill="#495057" points="181.336,1462.5,189.6693,1483.3333,198.0026,1462.5,189.6693,1470.8333" style="stroke:#495057;stroke-width:2.0833;stroke-linejoin:miter;stroke-miterlimit:10;"/><line style="stroke:#495057;stroke-width:2.0833;" x1="530.4398" x2="530.4398" y1="1445.8333" y2="1483.3333"/><polygon fill="#495057" points="522.1064,1462.5,530.4398,1483.3333,538.7731,1462.5,530.4398,1470.8333" style="stroke:#495057;stroke-width:2.0833;stroke-linejoin:miter;stroke-miterlimit:10;"/><line style="stroke:#495057;stroke-width:2.0833;" x1="189.6693" x2="530.4398" y1="1483.3333" y2="1483.3333"/><line style="stroke:#495057;stroke-width:2.0833;" x1="360.0545" x2="360.0545" y1="1122.9167" y2="1195.8333"/><polygon fill="#495057" points="351.7212,1175,360.0545,1195.8333,368.3879,1175,360.0545,1183.3333" style="stroke:#495057;stroke-width:2.0833;stroke-linejoin:miter;stroke-miterlimit:10;"/><line style="stroke:#495057;stroke-width:2.0833;" x1="484.0108" x2="360.0545" y1="710.4167" y2="710.4167"/><line style="stroke:#495057;stroke-width:2.0833;" x1="360.0545" x2="360.0545" y1="710.4167" y2="758.3333"/><polygon fill="#495057" points="351.7212,737.5,360.0545,758.3333,368.3879,737.5,360.0545,745.8333" style="stroke:#495057;stroke-width:2.0833;stroke-linejoin:miter;stroke-miterlimit:10;"/><line style="stroke:#495057;stroke-width:2.0833;" x1="759.789" x2="883.7453" y1="710.4167" y2="710.4167"/><line style="stroke:#495057;stroke-width:2.0833;" x1="883.7453" x2="883.7453" y1="710.4167" y2="758.3333"/><polygon fill="#495057" points="875.412,737.5,883.7453,758.3333,892.0787,737.5,883.7453,745.8333" style="stroke:#495057;stroke-width:2.0833;stroke-linejoin:miter;stroke-miterlimit:10;"/><line style="stroke:#495057;stroke-width:2.0833;" x1="360.0545" x2="360.0545" y1="1483.3333" y2="1520.8333"/><polygon fill="#495057" points="351.7212,1500,360.0545,1520.8333,368.3879,1500,360.0545,1508.3333" style="stroke:#495057;stroke-width:2.0833;stroke-linejoin:miter;stroke-miterlimit:10;"/><line style="stroke:#495057;stroke-width:2.0833;" x1="883.7453" x2="883.7453" y1="827.0833" y2="1520.8333"/><polygon fill="#495057" points="875.412,1500,883.7453,1520.8333,892.0787,1500,883.7453,1508.3333" style="stroke:#495057;stroke-width:2.0833;stroke-linejoin:miter;stroke-miterlimit:10;"/><line style="stroke:#495057;stroke-width:2.0833;" x1="360.0545" x2="883.7453" y1="1520.8333" y2="1520.8333"/><line style="stroke:#495057;stroke-width:2.0833;" x1="621.8999" x2="621.8999" y1="610.4167" y2="683.3333"/><polygon fill="#495057" points="613.5666,662.5,621.8999,683.3333,630.2333,662.5,621.8999,670.8333" style="stroke:#495057;stroke-width:2.0833;stroke-linejoin:miter;stroke-miterlimit:10;"/><line style="stroke:#495057;stroke-width:2.0833;" x1="1508.5505" x2="1508.5505" y1="754.1667" y2="827.0833"/><polygon fill="#495057" points="1500.2172,806.25,1508.5505,827.0833,1516.8839,806.25,1508.5505,814.5833" style="stroke:#495057;stroke-width:2.0833;stroke-linejoin:miter;stroke-miterlimit:10;"/><line style="stroke:#495057;stroke-width:2.0833;" x1="1892.2272" x2="1892.2272" y1="746.875" y2="819.7917"/><polygon fill="#495057" points="1883.8938,798.9583,1892.2272,819.7917,1900.5605,798.9583,1892.2272,807.2917" style="stroke:#495057;stroke-width:2.0833;stroke-linejoin:miter;stroke-miterlimit:10;"/><line style="stroke:#495057;stroke-width:2.0833;" x1="1183.3501" x2="1183.3501" y1="616.6667" y2="685.4167"/><polygon fill="#495057" points="1175.0168,664.5833,1183.3501,685.4167,1191.6835,664.5833,1183.3501,672.9167" style="stroke:#495057;stroke-width:2.0833;stroke-linejoin:miter;stroke-miterlimit:10;"/><line style="stroke:#495057;stroke-width:2.0833;" x1="1183.3501" x2="1183.3501" y1="754.1667" y2="1037.5"/><polygon fill="#495057" points="1175.0168,1016.6667,1183.3501,1037.5,1191.6835,1016.6667,1183.3501,1025" style="stroke:#495057;stroke-width:2.0833;stroke-linejoin:miter;stroke-miterlimit:10;"/><line style="stroke:#495057;stroke-width:2.0833;" x1="1508.5505" x2="1508.5505" y1="616.6667" y2="685.4167"/><polygon fill="#495057" points="1500.2172,664.5833,1508.5505,685.4167,1516.8839,664.5833,1508.5505,672.9167" style="stroke:#495057;stroke-width:2.0833;stroke-linejoin:miter;stroke-miterlimit:10;"/><line style="stroke:#495057;stroke-width:2.0833;" x1="1508.5505" x2="1508.5505" y1="895.8333" y2="1037.5"/><polygon fill="#495057" points="1500.2172,1016.6667,1508.5505,1037.5,1516.8839,1016.6667,1508.5505,1025" style="stroke:#495057;stroke-width:2.0833;stroke-linejoin:miter;stroke-miterlimit:10;"/><line style="stroke:#495057;stroke-width:2.0833;" x1="1254.2781" x2="1437.6226" y1="591.6667" y2="591.6667"/><polygon fill="#495057" points="1416.7892,583.3333,1437.6226,591.6667,1416.7892,600,1425.1226,591.6667" style="stroke:#495057;stroke-width:2.0833;stroke-linejoin:miter;stroke-miterlimit:10;"/><line style="stroke:#495057;stroke-width:2.0833;" x1="1546.1934" x2="1183.3501" y1="514.5833" y2="514.5833"/><line style="stroke:#495057;stroke-width:2.0833;" x1="1183.3501" x2="1183.3501" y1="514.5833" y2="566.6667"/><polygon fill="#495057" points="1175.0168,545.8333,1183.3501,566.6667,1191.6835,545.8333,1183.3501,554.1667" style="stroke:#495057;stroke-width:2.0833;stroke-linejoin:miter;stroke-miterlimit:10;"/><line style="stroke:#495057;stroke-width:2.0833;" x1="1579.4785" x2="1892.2272" y1="591.6667" y2="591.6667"/><line style="stroke:#495057;stroke-width:2.0833;" x1="1892.2272" x2="1892.2272" y1="591.6667" y2="678.125"/><polygon fill="#495057" points="1883.8938,657.2917,1892.2272,678.125,1900.5605,657.2917,1892.2272,665.625" style="stroke:#495057;stroke-width:2.0833;stroke-linejoin:miter;stroke-miterlimit:10;"/><line style="stroke:#495057;stroke-width:2.0833;" x1="1892.2272" x2="1892.2272" y1="888.5417" y2="1037.5"/><polygon fill="#495057" points="1883.8938,1016.6667,1892.2272,1037.5,1900.5605,1016.6667,1892.2272,1025" style="stroke:#495057;stroke-width:2.0833;stroke-linejoin:miter;stroke-miterlimit:10;"/><line style="stroke:#495057;stroke-width:2.0833;" x1="1183.3501" x2="1892.2272" y1="1037.5" y2="1037.5"/><line style="stroke:#495057;stroke-width:2.0833;" x1="1546.1934" x2="1546.1934" y1="1037.5" y2="1110.4167"/><polygon fill="#495057" points="1537.8601,1089.5833,1546.1934,1110.4167,1554.5268,1089.5833,1546.1934,1097.9167" style="stroke:#495057;stroke-width:2.0833;stroke-linejoin:miter;stroke-miterlimit:10;"/><line style="stroke:#495057;stroke-width:2.0833;" x1="3394.5638" x2="3394.5638" y1="717.1875" y2="790.1042"/><polygon fill="#495057" points="3386.2305,769.2708,3394.5638,790.1042,3402.8971,769.2708,3394.5638,777.6042" style="stroke:#495057;stroke-width:2.0833;stroke-linejoin:miter;stroke-miterlimit:10;"/><line style="stroke:#495057;stroke-width:2.0833;" x1="2232.4702" x2="2232.4702" y1="616.6667" y2="685.4167"/><polygon fill="#495057" points="2224.1369,664.5833,2232.4702,685.4167,2240.8035,664.5833,2232.4702,672.9167" style="stroke:#495057;stroke-width:2.0833;stroke-linejoin:miter;stroke-miterlimit:10;"/><line style="stroke:#495057;stroke-width:2.0833;" x1="2232.4702" x2="2232.4702" y1="754.1667" y2="992.7083"/><polygon fill="#495057" points="2224.1369,971.875,2232.4702,992.7083,2240.8035,971.875,2232.4702,980.2083" style="stroke:#495057;stroke-width:2.0833;stroke-linejoin:miter;stroke-miterlimit:10;"/><line style="stroke:#495057;stroke-width:2.0833;" x1="2593.7861" x2="2593.7861" y1="616.6667" y2="685.4167"/><polygon fill="#495057" points="2585.4528,664.5833,2593.7861,685.4167,2602.1194,664.5833,2593.7861,672.9167" style="stroke:#495057;stroke-width:2.0833;stroke-linejoin:miter;stroke-miterlimit:10;"/><line style="stroke:#495057;stroke-width:2.0833;" x1="2593.7861" x2="2593.7861" y1="754.1667" y2="992.7083"/><polygon fill="#495057" points="2585.4528,971.875,2593.7861,992.7083,2602.1194,971.875,2593.7861,980.2083" style="stroke:#495057;stroke-width:2.0833;stroke-linejoin:miter;stroke-miterlimit:10;"/><line style="stroke:#495057;stroke-width:2.0833;" x1="3009.0688" x2="3009.0688" y1="616.6667" y2="685.4167"/><polygon fill="#495057" points="3000.7355,664.5833,3009.0688,685.4167,3017.4021,664.5833,3009.0688,672.9167" style="stroke:#495057;stroke-width:2.0833;stroke-linejoin:miter;stroke-miterlimit:10;"/><line style="stroke:#495057;stroke-width:2.0833;" x1="3009.0688" x2="3009.0688" y1="754.1667" y2="992.7083"/><polygon fill="#495057" points="3000.7355,971.875,3009.0688,992.7083,3017.4021,971.875,3009.0688,980.2083" style="stroke:#495057;stroke-width:2.0833;stroke-linejoin:miter;stroke-miterlimit:10;"/><line style="stroke:#495057;stroke-width:2.0833;" x1="2341.7618" x2="2484.4945" y1="591.6667" y2="591.6667"/><polygon fill="#495057" points="2463.6612,583.3333,2484.4945,591.6667,2463.6612,600,2471.9945,591.6667" style="stroke:#495057;stroke-width:2.0833;stroke-linejoin:miter;stroke-miterlimit:10;"/><line style="stroke:#495057;stroke-width:2.0833;" x1="2703.0777" x2="2899.7772" y1="591.6667" y2="591.6667"/><polygon fill="#495057" points="2878.9439,583.3333,2899.7772,591.6667,2878.9439,600,2887.2772,591.6667" style="stroke:#495057;stroke-width:2.0833;stroke-linejoin:miter;stroke-miterlimit:10;"/><line style="stroke:#495057;stroke-width:2.0833;" x1="2807.4148" x2="2232.4702" y1="514.5833" y2="514.5833"/><line style="stroke:#495057;stroke-width:2.0833;" x1="2232.4702" x2="2232.4702" y1="514.5833" y2="566.6667"/><polygon fill="#495057" points="2224.1369,545.8333,2232.4702,566.6667,2240.8035,545.8333,2232.4702,554.1667" style="stroke:#495057;stroke-width:2.0833;stroke-linejoin:miter;stroke-miterlimit:10;"/><line style="stroke:#495057;stroke-width:2.0833;" x1="3118.3604" x2="3394.5638" y1="591.6667" y2="591.6667"/><line style="stroke:#495057;stroke-width:2.0833;" x1="3394.5638" x2="3394.5638" y1="591.6667" y2="648.4375"/><polygon fill="#495057" points="3386.2305,627.6042,3394.5638,648.4375,3402.8971,627.6042,3394.5638,635.9375" style="stroke:#495057;stroke-width:2.0833;stroke-linejoin:miter;stroke-miterlimit:10;"/><line style="stroke:#495057;stroke-width:2.0833;" x1="3394.5638" x2="3394.5638" y1="858.8542" y2="992.7083"/><polygon fill="#495057" points="3386.2305,971.875,3394.5638,992.7083,3402.8971,971.875,3394.5638,980.2083" style="stroke:#495057;stroke-width:2.0833;stroke-linejoin:miter;stroke-miterlimit:10;"/><line style="stroke:#495057;stroke-width:2.0833;" x1="2232.4702" x2="3394.5638" y1="992.7083" y2="992.7083"/><line style="stroke:#495057;stroke-width:2.0833;" x1="2807.4148" x2="2807.4148" y1="992.7083" y2="1051.0417"/><polygon fill="#495057" points="2799.0814,1030.2083,2807.4148,1051.0417,2815.7481,1030.2083,2807.4148,1038.5417" style="stroke:#495057;stroke-width:2.0833;stroke-linejoin:miter;stroke-miterlimit:10;"/><line style="stroke:#495057;stroke-width:2.0833;" x1="3667.3762" x2="3667.3762" y1="583.3333" y2="656.25"/><polygon fill="#495057" points="3659.0429,635.4167,3667.3762,656.25,3675.7095,635.4167,3667.3762,643.75" style="stroke:#495057;stroke-width:2.0833;stroke-linejoin:miter;stroke-miterlimit:10;"/><line style="stroke:#495057;stroke-width:2.0833;" x1="1766.3686" x2="621.8999" y1="414.5833" y2="414.5833"/><line style="stroke:#495057;stroke-width:2.0833;" x1="621.8999" x2="621.8999" y1="414.5833" y2="514.5833"/><polygon fill="#495057" points="613.5666,493.75,621.8999,514.5833,630.2333,493.75,621.8999,502.0833" style="stroke:#495057;stroke-width:2.0833;stroke-linejoin:miter;stroke-miterlimit:10;"/><text fill="#495057" font-family="Helvetica" font-size="27.0833" lengthAdjust="spacing" textLength="210.7554" x="621.8999" y="471.8964">Submit Feedback</text><line style="stroke:#495057;stroke-width:2.0833;" x1="1984.9915" x2="3667.3762" y1="414.5833" y2="414.5833"/><line style="stroke:#495057;stroke-width:2.0833;" x1="3667.3762" x2="3667.3762" y1="414.5833" y2="514.5833"/><polygon fill="#495057" points="3659.0429,493.75,3667.3762,514.5833,3675.7095,493.75,3667.3762,502.0833" style="stroke:#495057;stroke-width:2.0833;stroke-linejoin:miter;stroke-miterlimit:10;"/><text fill="#495057" font-family="Helvetica" font-size="27.0833" lengthAdjust="spacing" textLength="45.1477" x="3667.3762" y="471.8964">Exit</text><line style="stroke:#495057;stroke-width:2.0833;" x1="1546.1934" x2="1546.1934" y1="414.5833" y2="514.5833"/><text fill="#495057" font-family="Helvetica" font-size="27.0833" lengthAdjust="spacing" textLength="185.1664" x="1546.1934" y="461.4797">View Feedback</text><line style="stroke:#495057;stroke-width:2.0833;" x1="2807.4148" x2="2807.4148" y1="414.5833" y2="514.5833"/><text fill="#495057" font-family="Helvetica" font-size="27.0833" lengthAdjust="spacing" textLength="94.8313" x="2807.4148" y="461.4797">Reports</text><line style="stroke:#495057;stroke-width:2.0833;" x1="621.8999" x2="621.8999" y1="1520.8333" y2="1566.6667"/><line style="stroke:#495057;stroke-width:2.0833;" x1="621.8999" x2="1850.68" y1="1566.6667" y2="1566.6667"/><polygon fill="#495057" points="1829.8467,1558.3333,1850.68,1566.6667,1829.8467,1575,1838.18,1566.6667" style="stroke:#495057;stroke-width:2.0833;stroke-linejoin:miter;stroke-miterlimit:10;"/><line style="stroke:#495057;stroke-width:2.0833;" x1="2807.4148" x2="2807.4148" y1="1119.7917" y2="1566.6667"/><line style="stroke:#495057;stroke-width:2.0833;" x1="2807.4148" x2="1900.68" y1="1566.6667" y2="1566.6667"/><polygon fill="#495057" points="1921.5134,1558.3333,1900.68,1566.6667,1921.5134,1575,1913.18,1566.6667" style="stroke:#495057;stroke-width:2.0833;stroke-linejoin:miter;stroke-miterlimit:10;"/><line style="stroke:#495057;stroke-width:2.0833;" x1="1546.1934" x2="1546.1934" y1="1179.1667" y2="1566.6667"/><polygon fill="#495057" points="1537.8601,1545.8333,1546.1934,1566.6667,1554.5268,1545.8333,1546.1934,1554.1667" style="stroke:#495057;stroke-width:2.0833;stroke-linejoin:miter;stroke-miterlimit:10;"/><line style="stroke:#495057;stroke-width:2.0833;" x1="1875.68" x2="1875.68" y1="347.9167" y2="389.5833"/><polygon fill="#495057" points="1867.3467,368.75,1875.68,389.5833,1884.0134,368.75,1875.68,377.0833" style="stroke:#495057;stroke-width:2.0833;stroke-linejoin:miter;stroke-miterlimit:10;"/><line style="stroke:#495057;stroke-width:2.0833;" x1="1875.68" x2="1875.68" y1="237.5" y2="279.1667"/><polygon fill="#495057" points="1867.3467,258.3333,1875.68,279.1667,1884.0134,258.3333,1875.68,266.6667" style="stroke:#495057;stroke-width:2.0833;stroke-linejoin:miter;stroke-miterlimit:10;"/><line style="stroke:#495057;stroke-width:2.0833;" x1="1985.732" x2="3784.6934" y1="1658.3333" y2="1658.3333"/><polygon fill="#495057" points="3776.3601,1053.125,3784.6934,1032.2917,3793.0267,1053.125,3784.6934,1044.7917" style="stroke:#495057;stroke-width:2.0833;stroke-linejoin:miter;stroke-miterlimit:10;"/><line style="stroke:#495057;stroke-width:2.0833;" x1="3784.6934" x2="3784.6934" y1="212.5" y2="1658.3333"/><line style="stroke:#495057;stroke-width:2.0833;" x1="3784.6934" x2="1900.68" y1="212.5" y2="212.5"/><polygon fill="#495057" points="1921.5134,204.1667,1900.68,212.5,1921.5134,220.8333,1913.18,212.5" style="stroke:#495057;stroke-width:2.0833;stroke-linejoin:miter;stroke-miterlimit:10;"/><line style="stroke:#495057;stroke-width:2.0833;" x1="1875.68" x2="1875.68" y1="1591.6667" y2="1633.3333"/><polygon fill="#495057" points="1867.3467,1612.5,1875.68,1633.3333,1884.0134,1612.5,1875.68,1620.8333" style="stroke:#495057;stroke-width:2.0833;stroke-linejoin:miter;stroke-miterlimit:10;"/><line style="stroke:#495057;stroke-width:2.0833;" x1="1875.68" x2="1875.68" y1="145.8333" y2="187.5"/><polygon fill="#495057" points="1867.3467,166.6667,1875.68,187.5,1884.0134,166.6667,1875.68,175" style="stroke:#495057;stroke-width:2.0833;stroke-linejoin:miter;stroke-miterlimit:10;"/><line style="stroke:#495057;stroke-width:2.0833;" x1="1875.68" x2="1875.68" y1="1683.3333" y2="1748.9797"/><polygon fill="#495057" points="1867.3467,1728.1464,1875.68,1748.9797,1884.0134,1728.1464,1875.68,1736.4797" style="stroke:#495057;stroke-width:2.0833;stroke-linejoin:miter;stroke-miterlimit:10;"/><?plantuml-src XLLDRzf04BtxLunKgJKILI66D84eKG2xlVH38KelkIpsW5SiksXt3QMd_eZ-mlwIZh6zDWJIN6Bll7dpviruCKikrqop5IHh3XUTZcVSoOp5ouLMcKp6IYWDRwBzNmDXKfQeBPSBc3DXi159SCuoOICbxLUsGlYCOeEMn-mqPif_8NI3Hl1UQxKjw_Qk-vt-n-DWddSM45k-uNOtEcuX3AFUGGiEgNI2kaG5e_veCZgBUanvl9He37HFO2QShPHCHYVS2qRHAmbD1L7dQdmmZ2Dme_dk-A8VN9w0JYtJ5UWYkWvxlHEWiBQc4tI3PaDZgiCjLv8mKxiJ2AdW4ZtFSailZqYO7lpz_GSYn2JV5dWB3xXMsfg1Am2aU45qdcToFPx6DJBh0GocgTh22cKsf3UpvJPEmVz2xn2dYiTur_8e43E3u4-psOfRLwX50M88fKKDLZEIXUtoGRTfStCkdfZsizJCqeAs8LOhgcNDS9_Av-0_CS4Je6upU_SiVOA3GTk68WEwx_kj5jWK9VWxD4L9AZh21PTvBMbOdDipT96CYyHfR0EvjNoMfIhuK0cbfqBWR4SQNVPtr8OR2_FAJ7zo_wrLXNF1Osg1sqgJoUAOTh3ILHagSLjJ43tStBoP1D7rvEhsjeIYo2sTCouoZOty1oN4FgtPN9uVHM4G1Yw_AeNq6UfJ0AJ5cNjrAQcSU_l4JUuyo-dFSHGCRlnFdBew77vko3HMQrgJqX0cX2iJOMumdJWlXaxFoqmQH3abHz1SBTqSKy7i7AvJXus6wNG_uYEwQYzV8Tj3XjwXYuC9Dsl1TZLIqAOCQt_AhwvsvWTTKIde_N5jq0OrMxY93sYVQFSHxfy--SNIjmvTEiaoGsDhdxbC8EMBb0wXv7zfo5akeROls8gpysJWxuz8hVd_jCPq0TigyCuKzg8vQt2XZ_uP-cKgrpBgXPUqbixiy2UtrGL4Zp3T6OkhWj9OjSwHH5tSQELz1zkKqvtfhvH6ABuiGovmKzmj89KjFfESu1y0?></g></svg>